<?xml version="1.0" encoding="iso-8859-1"?>
<!-- Generator: Adobe Illustrator 19.0.0, SVG Export Plug-In . SVG Version: 6.00 Build 0)  -->
<svg version="1.1" id="Capa_1" xmlns="http://www.w3.org/2000/svg" xmlns:xlink="http://www.w3.org/1999/xlink" x="0px" y="0px"
	 viewBox="10 10 550 450" style="enable-background:new 0 0 512 512;" width="35px" height="35px" xml:space="preserve">
<g>
	<g>
		<g>
			<path d="M153,0c-30.327,0-55,24.673-55,55c0,30.327,24.673,55,55,55c30.327,0,55-24.673,55-55C208,24.673,183.327,0,153,0z
				 M153,70c-8.271,0-15-6.729-15-15s6.729-15,15-15s15,6.729,15,15S161.271,70,153,70z"/>
			<path d="M314,76c-55.141,0-100,44.859-100,100v316c0,11.046,8.954,20,20,20s20-8.954,20-20V286h70c11.046,0,20-8.954,20-20
				s-8.954-20-20-20h-70v-70c0-33.084,26.916-60,60-60s60,26.916,60,60c0,11.046,8.954,20,20,20c11.046,0,20-8.954,20-20
				C414,120.859,369.141,76,314,76z"/>
		</g>
	</g>
</g>
<g>
</g>
<g>
</g>
<g>
</g>
<g>
</g>
<g>
</g>
<g>
</g>
<g>
</g>
<g>
</g>
<g>
</g>
<g>
</g>
<g>
</g>
<g>
</g>
<g>
</g>
<g>
</g>
<g>
</g>
</svg>
