<?xml version="1.0" encoding="utf-8"?>
<!-- Generator: Adobe Illustrator 23.0.3, SVG Export Plug-In . SVG Version: 6.00 Build 0)  -->
<svg version="1.1" id="Layer_1" xmlns="http://www.w3.org/2000/svg" xmlns:xlink="http://www.w3.org/1999/xlink" x="0px" y="0px"
	 viewBox="0 0 1000 1000" width="37" height="37" style="enable-background:new 0 0 1000 1000;" xml:space="preserve">
<g>
	<path d="M694.13,790.76c-55.59,37.2-122.37,58.91-194.13,58.91c-28.08,0-55.39-3.32-81.57-9.6l-34.25,84.2
		c37.52,10.24,76.28,15.4,115.82,15.4c59.38,0,117.01-11.64,171.29-34.6c52.4-22.16,99.45-53.88,139.84-94.27
		c6.51-6.51,12.79-13.19,18.84-20.04H694.13z M500,59.67c-59.38,0-117,11.64-171.28,34.59c-52.4,22.17-99.45,53.89-139.84,94.28
		c-5.86,5.86-11.53,11.85-17.01,17.98h137.12c54.96-35.94,120.59-56.85,191.01-56.85c33.48,0,65.88,4.73,96.57,13.55l34.1-83.83
		C588.57,66.29,544.78,59.67,500,59.67z"/>
</g>
<g>
	<path d="M168.75,386.58c-9.63,28.12-15.77,57.84-17.9,88.65h202.5l-36.61,90H156.16c19.97,104.97,86.97,193.48,178.18,242.69
		l-34.12,83.88c-41.07-20.91-78.42-48.08-111.34-81c-40.4-40.4-72.12-87.45-94.28-139.85C71.64,616.68,60,559.05,60,499.67
		c0-59.38,11.64-117.01,34.6-171.28c4.59-10.86,9.59-21.49,15.01-31.87h105.54c-0.02,0.02-0.03,0.04-0.04,0.06h210.9l-36.6,90
		H168.75z"/>
</g>
<g>
	<path d="M905.41,328.39c-22.17-52.4-53.88-99.45-94.28-139.85c-29.24-29.24-61.97-53.94-97.7-73.75l-34.29,84.3
		c0.16,0.09,0.32,0.18,0.47,0.28L475.67,700.76h97.16l55.13-135.53h215.88c-9.45,49.67-29.43,95.65-57.53,135.53h105.16
		c5-9.73,9.65-19.67,13.94-29.81C928.36,616.68,940,559.05,940,499.67C940,440.29,928.36,382.66,905.41,328.39z M664.57,475.23
		l88.36-217.24c54.83,57.36,90.41,133.27,96.22,217.24H664.57z"/>
</g>
</svg>
